<?xml version="1.0" encoding="utf-8"?>
<!-- Generator: Adobe Illustrator 24.0.0, SVG Export Plug-In . SVG Version: 6.00 Build 0)  -->
<svg version="1.1" id="Capa_1" xmlns="http://www.w3.org/2000/svg" xmlns:xlink="http://www.w3.org/1999/xlink" x="0px" y="0px"
	 viewBox="0 0 992.1 1417.3" style="enable-background:new 0 0 992.1 1417.3;" xml:space="preserve">
<style type="text/css">
	.st0{fill:#26272F;}
	.st1{fill:#8BC34C;}
	.st2{fill:none;stroke:#8BC34C;stroke-width:2;stroke-miterlimit:10;}
</style>
<circle class="st0" cx="496.1" cy="721.8" r="178.1"/>
<image style="display:none;overflow:visible;" width="400" height="300" xlink:href="../Downloads/IMG_1763.JPG"  transform="matrix(1 0 0 1 311.9888 782.3344)">
</image>
<g>
	<g>
		<path class="st1" d="M450,634.3c1.3,0,2.7,0,3.9,0.1c0.9,0,1.8,0,2.6,0.1c5.4,0.1,10.1,0.1,14.4,0.2c1.6,0,3.2,0.1,4.8,0.1
			c6.1,0.1,12.5,0.2,18.4,1.1c4.9,0.8,7.1,4.3,9.7,9.2c3.9,7.4,7.2,12.9,10.8,17.7c14.8,20.4,38.4,35.5,61.6,39.3
			c0.7,0.1,2,0.5,3,1.6c0.6,0.7,1,1.7,0.9,2.8l-0.4,15.1l0,0.1l0,0.1c0,0,0.1,0.8-0.4,1.3c-0.4,0.4-1,0.4-1.2,0.4c0,0,0,0,0,0
			L442,723.1c-0.1,0-0.3,0-0.4,0c-13.5-1.2-15.6-12.4-15.7-12.8c-1.5-9.9-1.7-20-0.6-29.9c2-17.9,6.7-32,13.9-41.9
			c0.1-0.2,0.3-0.4,0.4-0.6c0.9-1.3,1.9-2.6,2.9-2.9C445,634.3,448,634.3,450,634.3 M450,632.3c-2.8,0-5.6,0.1-7.9,0.7
			c-2,0.5-3.3,2.6-4.5,4.2c-8.7,12-12.6,28.4-14.3,42.9c-1.4,12.2-0.6,22.7,0.6,30.5c0,0,2.1,13.1,17.5,14.5c0.2,0,0.4,0,0.6,0
			l136.1,0.4c0,0,0,0,0.1,0c0.3,0,1.6-0.1,2.5-1c1.2-1.2,1-2.8,1-3l0.4-15.1c0-1.5-0.4-3-1.5-4.2c0,0,0,0,0,0
			c-1.5-1.7-3.5-2.1-4.1-2.2c-23.7-3.9-46.3-19.2-60.3-38.5c-4-5.5-7.4-11.4-10.6-17.5c-2.5-4.8-5.2-9.2-11.1-10.2
			c-7.7-1.3-15.7-1.1-23.4-1.2c-4.8-0.1-9.6-0.2-14.5-0.2C454.6,632.3,452.3,632.3,450,632.3L450,632.3z"/>
	</g>
	<path class="st2" d="M439.6,730.9l11.1-0.2c1.9,0,3.4,1.3,3.7,3.2c0.3,1.6,1.2,3.3,3.8,3.4c5.1,0.3,19.8,0.1,19.8,0.1
		s2.1,0.2,2.8-3.3c0.4-1.8,1.9-3,3.7-3.1l91.7-0.8c0,0,4.7-0.5,5.2,2.8l0,0.1c0.4,2.2-1.3,4.2-3.5,4.3l-26.7,1.2l-23,3.4
		c-33.1,4.9-67.4,3.8-100.8,4.8c-0.6,0-1.1-0.1-1.7-0.3c-0.9-0.4-2.2-1.2-2.9-2.7c-0.8-1.6-1.1-4.3,0.5-5.9c1.2-1.1,2.7-1.2,3.2-1.2
		h5.5c1.7,0,3.3-1.1,3.7-2.8c0,0,0-0.1,0-0.1C436.3,732.2,437.8,730.9,439.6,730.9z"/>
	<path class="st2" d="M513.1,669.7c2.5,2.4,5,4.9,7.5,7.3c0.3,0.3,0.5,0.8,0.5,1.2l-0.1,18.4c0,1.2-1.2,2-2.3,1.5c0,0,0,0,0,0
		c-1.8-0.8-3.4-1.9-4.8-3.2c-4.1-3.9-3.3-9.5-3.4-14.6c-0.1-2.8-0.1-5.6-0.1-8.5c0-0.3,0-0.6,0-0.9
		C510.2,669.5,512,668.7,513.1,669.7z"/>
	<path class="st2" d="M527.1,684.5c0-0.6,0.7-1,1.2-0.6c2.3,1.6,7.2,5.5,7.7,9.1c0.5,3.6,0.4,9.1,0.3,11.3c0,0.5-0.5,0.9-1,0.7
		c-2.2-0.8-7.6-3.3-8.5-8.2c0-0.1,0-0.1,0-0.2L527.1,684.5z"/>
	<path class="st2" d="M541.6,692c1.3,0,3.2,1.4,4.2,2.2c2.7,2,3.7,4.5,3.8,7.9c0.1,2.3,0.1,4.7,0.1,7c0,0-3.3-0.9-3.5-1
		c-1.6-0.7-3.8-1.8-4.5-3.5C541.2,703.4,541.1,692,541.6,692z"/>
	<path class="st2" d="M554.2,699.1l0.2,8.4c0,0.1,0,0.2,0,0.3c0.2,0.6,1.2,3,5.2,3.9c0.7,0.1,1.3-0.4,1.3-1l0.2-7.8
		c0-0.1,0-0.2,0-0.3c-0.2-0.7-1.2-3.3-5.6-4.5C554.8,697.8,554.1,698.3,554.2,699.1z"/>
	<path class="st2" d="M564.8,702.6c0.1-0.9,0.9-1.6,1.7-1.4c1.8,0.3,4.3,1.1,4.7,3.4c0.3,2.3,0.3,5.6,0.2,7.4c0,0.9-0.8,1.5-1.6,1.4
		c-1.6-0.2-4.1-0.8-5.3-3.1c-0.1-0.2-0.2-0.5-0.1-0.8L564.8,702.6z"/>
	<path class="st2" d="M573.9,704.7c0-1.1,1-1.9,2.1-1.8c1.5,0.2,3.4,0.8,3.6,2.9c0.2,2.2,0.2,4.8,0.1,6.6c0,1.1-1,1.9-2.1,1.8
		c-1.5-0.2-3.4-0.8-3.9-2.4c-0.1-0.2-0.1-0.4-0.1-0.6L573.9,704.7z"/>
	<ellipse class="st2" cx="439.8" cy="694.9" rx="6.6" ry="6.5"/>
	<ellipse class="st2" cx="487.9" cy="695.1" rx="6.6" ry="6.5"/>
	<path class="st2" d="M432.6,658.5c-0.1,0.1-0.9,2.2,0.4,4c0.9,1.3,2.5,2,4,1.7c19,0.3,38.1,0.7,57.1,1c1.7,0,3.3-0.7,4.2-2.1
		c0,0,0,0,0,0c1.1-1.7,1-3.4,0.9-3.9c-0.1-2-0.7-4.6-1.6-7.4c-1.1-3.4-2.9-7.3-5.8-9.9c-0.9-0.8-2.1-1.3-3.4-1.3
		c-11.6-0.1-37.7-1.2-41.4-1.3c-3.1-0.1-6.7,0.4-8.3,3.4C436.8,648,434.7,653.3,432.6,658.5z"/>
</g>
<path class="st1" d="M485.7,772v4.6h20.6v-4.5C506.3,772.1,486,772.3,485.7,772z"/>
<polygon class="st1" points="425,771.8 430.6,771.8 436.7,782.5 443.5,772.5 449.1,772.5 449.1,796.1 444.3,796.1 444.3,779.9 
	438.4,790.2 436.6,790.2 "/>
<path class="st1" d="M513.3,772.2c-0.1,1.4-0.1,2.9-0.2,4.3c3.7,0,7.4-0.1,11.1-0.1c2.4,0.1,4.1,2.1,3.9,4c-0.2,1.5-1.5,2.9-3.3,3.1
	c-1.5,0-3,0-4.5,0v2.7l8.3,9.9h5l-6.3-9.2c3.7-0.7,6.3-3.9,6.3-7.4c0-2.9-2.5-6.9-5.7-7C523.1,772.4,518.2,772.3,513.3,772.2z"/>
<path class="st1" d="M542.2,771h5.3v24.9h-5.4C542.1,795.9,542.2,770.7,542.2,771z"/>
<polygon class="st1" points="557,771.7 562.1,771.7 568.1,779.8 573.2,772.3 579.3,772.3 562.7,796.7 556.6,796.7 565.1,784.1 "/>
<path class="st1" d="M458.7,771.6v13.8c7,0,14.1,0,21.1,0c0-1.6,0-3.1-0.1-4.7c-5.6,0-11.3,0-16.9,0.1c0-1.5,0-3.1,0-4.6
	c5.5,0,11.1,0,16.6,0c0-1.6,0.1-3.2,0.1-4.7c-3.1,0-6.2-0.1-9.3-0.1C466.3,771.5,462.5,771.5,458.7,771.6z"/>
<path class="st1" d="M483.2,792.5"/>
</svg>
