<svg width="6" height="20" viewBox="0 0 6 20" fill="none" xmlns="http://www.w3.org/2000/svg">
<path d="M0.666748 9.99996C0.666748 10.6188 0.912581 11.2123 1.35017 11.6499C1.78775 12.0875 2.38124 12.3333 3.00008 12.3333C3.61892 12.3333 4.21241 12.0875 4.65 11.6499C5.08758 11.2123 5.33341 10.6188 5.33341 9.99996C5.33341 9.38112 5.08758 8.78763 4.65 8.35004C4.21241 7.91246 3.61892 7.66663 3.00008 7.66663C2.38124 7.66663 1.78775 7.91246 1.35017 8.35004C0.912581 8.78763 0.666748 9.38112 0.666748 9.99996ZM0.666748 2.99996C0.666748 3.6188 0.912581 4.21229 1.35017 4.64987C1.78775 5.08746 2.38124 5.33329 3.00008 5.33329C3.61892 5.33329 4.21241 5.08746 4.65 4.64987C5.08758 4.21229 5.33341 3.6188 5.33341 2.99996C5.33341 2.38112 5.08758 1.78763 4.65 1.35004C4.21241 0.912458 3.61892 0.666626 3.00008 0.666626C2.38124 0.666626 1.78775 0.912458 1.35017 1.35004C0.912581 1.78763 0.666748 2.38112 0.666748 2.99996ZM0.666748 17C0.666748 17.6188 0.912581 18.2123 1.35017 18.6499C1.78775 19.0875 2.38124 19.3333 3.00008 19.3333C3.61892 19.3333 4.21241 19.0875 4.65 18.6499C5.08758 18.2123 5.33341 17.6188 5.33341 17C5.33341 16.3811 5.08758 15.7876 4.65 15.35C4.21241 14.9125 3.61892 14.6666 3.00008 14.6666C2.38124 14.6666 1.78775 14.9125 1.35017 15.35C0.912581 15.7876 0.666748 16.3811 0.666748 17Z" fill="#8BC34A"/>
</svg>
